<?xml version="1.0" encoding="UTF-8"?>
<svg id="Layer_2" data-name="Layer 2" xmlns="http://www.w3.org/2000/svg" viewBox="0 0 28.35 28.35">
  <defs>
    <style>
      .cls-1 {
        fill: #296740;
        fill-rule: evenodd;
      }

      .cls-2 {
        fill: none;
      }
    </style>
  </defs>
  <g id="Layer_1-2" data-name="Layer 1">
    <g id="_Grid_Repeat_" data-name="&amp;lt;Grid Repeat&amp;gt;">
      <path class="cls-2" d="M28.35,14.17c0,7.83-6.35,14.17-14.17,14.17S0,22,0,14.17,6.35,0,14.17,0s14.17,6.35,14.17,14.17Z"/>
    </g>
    <path class="cls-1" d="M21.4,7.27c-.84-.72-1.82-1.27-2.96-1.67-1.14-.38-2.41-.58-3.75-.58s-2.7.26-3.97.75c-1.27.49-2.37,1.17-3.32,2.05-.98.92-1.73,1.98-2.32,3.29-.55,1.27-.84,2.67-.84,4.26s.26,2.93.74,4.11l.27.58h2.92c-.43-.52-.75-1.07-.97-1.72-.36-.92-.52-1.92-.52-3.06s.19-2.18.62-3.16c.39-1.01.94-1.82,1.69-2.54.68-.72,1.52-1.27,2.51-1.69.97-.39,2.02-.58,3.16-.58.97,0,1.92.09,2.77.32.84.23,1.59.62,2.24,1.11.62.48,1.11,1.13,1.47,1.88.36.78.55,1.72.55,2.8,0,.75-.09,1.4-.26,1.95-.19.56-.46,1.01-.72,1.37-.29.36-.62.63-.97.82-.36.17-.75.26-1.11.26-.39,0-.62-.16-.75-.45-.09-.33-.09-.82.03-1.47l1.04-5.92h-1.52l-.68.72c-.3-.26-.59-.46-.95-.62-.36-.13-.77-.2-1.3-.2-.72,0-1.43.2-2.08.59-.65.38-1.23.91-1.72,1.56-.52.65-.91,1.4-1.2,2.25-.3.84-.42,1.72-.42,2.63,0,.46.07.91.19,1.3.13.39.32.72.56,1.01.26.27.52.49.84.62.29.16.65.22.97.22.46,0,.85-.07,1.21-.2.36-.12.68-.29,1.01-.52.29-.23.58-.49.82-.78.26-.29.48-.58.72-.87h.09c-.07.45-.03.81.1,1.13.1.3.26.53.46.72.19.2.48.32.77.43.32.07.66.1,1.02.1.87,0,1.69-.17,2.43-.52.78-.32,1.43-.81,2.02-1.4.55-.58,1.01-1.3,1.33-2.12.32-.81.48-1.66.48-2.6,0-1.33-.22-2.51-.72-3.55-.48-1.01-1.13-1.88-1.98-2.6h0ZM15.51,15.6c-.16.29-.32.58-.52.84-.23.27-.42.49-.65.68-.2.2-.42.36-.68.49-.23.13-.46.19-.66.19-.45,0-.81-.16-1.01-.45-.19-.33-.29-.68-.29-1.17,0-.46.07-.94.22-1.43.13-.48.36-.91.62-1.3.26-.39.58-.72.94-.97.39-.23.78-.36,1.2-.36.33,0,.59.03.78.13l.59.36-.56,3Z"/>
  </g>
</svg>