<?xml version="1.0" encoding="UTF-8"?>
<svg id="Layer_2" data-name="Layer 2" xmlns="http://www.w3.org/2000/svg" viewBox="0 0 28.35 28.35">
  <defs>
    <style>
      .cls-1 {
        fill: #fff;
      }

      .cls-2 {
        fill: none;
      }

      .cls-3 {
        fill: #296740;
      }
    </style>
  </defs>
  <g id="Layer_1-2" data-name="Layer 1">
    <g id="_Grid_Repeat_" data-name="&amp;lt;Grid Repeat&amp;gt;">
      <circle class="cls-2" cx="14.17" cy="14.17" r="14.17"/>
    </g>
    <g>
      <path class="cls-1" d="M14.99,21.01h2.71c.02-.78,0-1.55,0-2.32h-2.71v2.32Z"/>
      <path class="cls-1" d="M11.5,21.01h2.32v-2.32h-2.32v2.32Z"/>
      <path class="cls-3" d="M14.99,13.6c-1.46.82-3.11,2.14-4.57,2.98-.09-2.69-.29-5.31-.43-7.98h-1.3c-.32,4.77-.34,9.86-.57,14.74h12.32v-9.74c-1.76.84-3.67,2.24-5.45,3.03v-3.03ZM13.82,21.01h-2.32v-2.32h2.32v2.32ZM17.7,18.68c0,.78.02,1.55,0,2.32h-2.71v-2.32h2.71ZM3.17,5.24C5.77,2.05,9.73,0,14.17,0,17.7,0,20.91,1.29,23.39,3.42c-.66.61-1.63.91-2.86.96-.73.64-1.26,1.66-2.58,1.78-.34.05-.57-.09-.91-.09-.71.02-1.28.29-1.89.25-1.03-.09-1.85-.64-2.08-1.62-.68.2-1.75.44-2.25-.09.16,1.48-.5,2.14-.75,3.21h-1.33c-.3-.52-.66-1.41-.3-2.05-.57-.32-1.25-.55-1.25-1.44-.41.66-.75,1.41-1.6,1.55-.72.1-1.68-.18-2.42-.64Z"/>
    </g>
  </g>
</svg>