<?xml version="1.0" encoding="UTF-8"?>
<svg id="Layer_2" data-name="Layer 2" xmlns="http://www.w3.org/2000/svg" viewBox="0 0 28.35 28.35">
  <defs>
    <style>
      .cls-1 {
        fill: #296740;
        fill-rule: evenodd;
      }

      .cls-2 {
        fill: none;
      }
    </style>
  </defs>
  <g id="Layer_1-2" data-name="Layer 1">
    <g id="_Grid_Repeat_" data-name="&amp;lt;Grid Repeat&amp;gt;">
      <path class="cls-2" d="M28.35,14.17c0,7.83-6.35,14.17-14.17,14.17S0,22,0,14.17,6.35,0,14.17,0s14.17,6.35,14.17,14.17Z"/>
    </g>
    <path class="cls-1" d="M20.59,5.99h-3.36c-.29-1.42-1.55-2.5-3.05-2.5s-2.76,1.08-3.02,2.5h-3.39c-.92,0-1.66.74-1.66,1.63v14.08c0,.92.74,1.63,1.66,1.63h12.83c.92,0,1.66-.71,1.66-1.63V7.62c0-.89-.74-1.63-1.66-1.63h0ZM14.17,5.57c.58,0,1.03.47,1.03,1.02s-.45,1.03-1.03,1.03-1.02-.45-1.02-1.03.44-1.02,1.02-1.02h0ZM20.16,20.37c0,.5-.4.92-.89.92h-10.19c-.5,0-.89-.42-.89-.92v-11.41c0-.5.39-.92.89-.92h2v.76c0,.5.42.89.91.89h4.37c.52,0,.91-.39.91-.89v-.76h2c.5,0,.89.42.89.92v11.41ZM17.06,17.14h-5.78c-.58,0-1.03.47-1.03,1.05s.45,1.02,1.03,1.02h5.78c.58,0,1.02-.47,1.02-1.02s-.44-1.05-1.02-1.05h0ZM17.06,13.43h-5.78c-.58,0-1.03.44-1.03,1.02s.45,1.05,1.03,1.05h5.78c.58,0,1.02-.47,1.02-1.05s-.44-1.02-1.02-1.02h0Z"/>
  </g>
</svg>