<?xml version="1.0" encoding="UTF-8"?>
<svg id="Layer_2" data-name="Layer 2" xmlns="http://www.w3.org/2000/svg" viewBox="0 0 28.35 28.35">
  <defs>
    <style>
      .cls-1 {
        fill: #296740;
        fill-rule: evenodd;
      }

      .cls-2 {
        fill: none;
      }
    </style>
  </defs>
  <g id="Layer_1-2" data-name="Layer 1">
    <g id="_Grid_Repeat_" data-name="&amp;lt;Grid Repeat&amp;gt;">
      <path class="cls-2" d="M28.35,14.17c0,7.83-6.35,14.17-14.17,14.17S0,22,0,14.17,6.35,0,14.17,0s14.17,6.35,14.17,14.17Z"/>
    </g>
    <path class="cls-1" d="M21.21,5.66H7.12c-.8,0-1.44.67-1.35,1.39v14.09c-.09.88.55,1.55,1.35,1.55h14.09c.8,0,1.46-.67,1.46-1.47V7.13c0-.8-.66-1.47-1.46-1.47h0ZM19.55,19.86h-3.31v-4.54h-4.12v4.54h-3.31v-11.36h3.31v4.57h4.12v-4.57h3.31v11.36Z"/>
  </g>
</svg>