<?xml version="1.0" encoding="UTF-8"?>
<svg id="Layer_2" data-name="Layer 2" xmlns="http://www.w3.org/2000/svg" viewBox="0 0 28.35 28.35">
  <defs>
    <style>
      .cls-1 {
        fill: #296740;
        fill-rule: evenodd;
      }

      .cls-2 {
        fill: none;
      }
    </style>
  </defs>
  <g id="Layer_1-2" data-name="Layer 1">
    <g id="_Grid_Repeat_" data-name="&amp;lt;Grid Repeat&amp;gt;">
      <path class="cls-2" d="M28.35,14.17c0,7.83-6.35,14.17-14.17,14.17S0,22,0,14.17,6.35,0,14.17,0s14.17,6.35,14.17,14.17Z"/>
    </g>
    <path class="cls-1" d="M9.75,20.45c-1.84-1.32-3.28-3.55-3.28-6.33s1.34-4.8,3.1-6.12c1.63-1.23,4.07-1.93,6.59-1.26,2.08.55,3.72,1.9,4.69,3.69.94,1.7,1.46,4.63.32,6.79.35.15.88.59,1.11.53,1.55-2.9.62-6.74-.85-8.79-1.55-2.17-4.13-3.93-7.56-3.78-2.87.15-5.21,1.49-6.73,3.4-1.47,1.9-2.38,4.78-1.61,7.79.64,2.49,2.28,4.48,4.39,5.59,2.05,1.09,5.5,1.58,8.02.24-.2-.35-.35-.79-.68-1.09-2.49,1.26-5.71.58-7.53-.67h0ZM18.63,15.82c1.14-3.63-1.47-6.76-4.98-6.44-2.61.23-4.42,2.54-4.25,5.06.21,3.08,3.16,5.25,6.53,4.13-.17-.43-.38-.79-.62-1.14-.32.14-.5.17-.79.2-2.55.21-4.1-1.78-3.87-3.92.18-1.81,1.88-3.13,3.52-3.13,2.4.03,3.95,2.2,3.37,4.63.32.23.7.41,1.09.62h0ZM20.47,25.03c0-1.55-.06-3.19.03-4.66,1.52-.02,3.13.06,4.57-.05-3.43-1.82-6.88-3.84-10.28-5.59,1.9,3.43,3.75,6.88,5.68,10.31h0Z"/>
  </g>
</svg>