<?xml version="1.0" encoding="UTF-8"?>
<svg id="Layer_2" data-name="Layer 2" xmlns="http://www.w3.org/2000/svg" viewBox="0 0 28.35 28.35">
  <defs>
    <style>
      .cls-1 {
        fill: #296740;
        fill-rule: evenodd;
      }

      .cls-2 {
        fill: none;
      }
    </style>
  </defs>
  <g id="Layer_1-2" data-name="Layer 1">
    <g id="_Grid_Repeat_" data-name="&amp;lt;Grid Repeat&amp;gt;">
      <circle class="cls-2" cx="14.17" cy="14.17" r="14.17"/>
    </g>
    <path class="cls-1" d="M14.19,5.5c-4.73,0-8.52,3.82-8.52,8.52s3.79,8.51,8.49,8.51,8.52-3.82,8.52-8.51-3.82-8.52-8.49-8.52h0ZM14.19,21.15c-3.95,0-7.16-3.21-7.16-7.13s3.21-7.14,7.13-7.14,7.16,3.19,7.16,7.14-3.21,7.13-7.13,7.13h0ZM14.01,9.45c-.39,0-.7.31-.7.73v2.57l-3.38,2.71c-.34.25-.37.71-.14,1.02.17.2.36.28.59.28l.45-.14,3.66-2.93v-.03l.17-.17.03-.05.03-.09.03-.06v-.14l.03-.06v-2.91c0-.42-.34-.76-.74-.76l-.03.03Z"/>
  </g>
</svg>