<?xml version="1.0" encoding="UTF-8"?>
<svg id="Layer_2" data-name="Layer 2" xmlns="http://www.w3.org/2000/svg" viewBox="0 0 28.35 28.35">
  <defs>
    <style>
      .cls-1 {
        fill: #296740;
        fill-rule: evenodd;
      }

      .cls-2 {
        fill: none;
      }
    </style>
  </defs>
  <g id="Layer_1-2" data-name="Layer 1">
    <g id="_Grid_Repeat_" data-name="&amp;lt;Grid Repeat&amp;gt;">
      <circle class="cls-2" cx="14.17" cy="14.17" r="14.17"/>
    </g>
    <path class="cls-1" d="M18.5,15.27h1.45c-.29-3.87-3.39-7-7.24-7.26v1.45c3.06.26,5.53,2.73,5.79,5.82h0ZM21.82,15.27h1.41c-.09-5.45-5.09-10.42-10.52-10.52v1.41c4.86.27,8.81,4.21,9.11,9.11h0ZM15.42,15.27h1.21c-.1-.98-.56-1.94-1.25-2.63-.76-.72-1.67-1.19-2.67-1.31v1.21c.63.13,1.22.46,1.71.96.53.52.86,1.11.99,1.77h0ZM19.66,24.58c.26-.03.59-.23.78-.4l2.96-2.99c.19-.17.13-.4-.07-.53l-4.38-2.57-.72.14-1.29,1.28c-.19.17-.52.33-.79.33,0,0-1.64,0-4.66-3.02-3.06-3.05-3.03-4.7-3.03-4.7,0-.23.13-.59.33-.75l1.09-1.12c.17-.17.24-.53.13-.76l-2.4-4.5c-.1-.24-.33-.26-.53-.1l-2.95,3c-.2.16-.36.52-.4.75,0,0-.59,4.34,5.49,10.43,6.09,6.08,10.43,5.52,10.43,5.52h0Z"/>
  </g>
</svg>