<?xml version="1.0" encoding="UTF-8"?>
<svg id="Layer_2" data-name="Layer 2" xmlns="http://www.w3.org/2000/svg" viewBox="0 0 28.35 28.35">
  <defs>
    <style>
      .cls-1 {
        fill: #296740;
        fill-rule: evenodd;
      }

      .cls-2 {
        fill: none;
      }
    </style>
  </defs>
  <g id="Layer_1-2" data-name="Layer 1">
    <g id="_Grid_Repeat_" data-name="&amp;lt;Grid Repeat&amp;gt;">
      <circle class="cls-2" cx="14.17" cy="14.17" r="14.17"/>
    </g>
    <path class="cls-1" d="M12.25,19.99c2.17.13,3.75-.68,5.11-1.78.58.3.32.71.51,1.27.17.58,1.26,1.39,1.81,1.93.61.61,1.26,1.68,2.16,1.61.51-.06.87-.55.87-.93.07-.83-1.03-1.61-1.61-2.17-.52-.55-1.32-1.58-1.98-1.77-.29-.1-.58.03-.8-.07-.2-.1-.2-.32-.42-.49,1.2-1.32,1.9-3.1,1.78-5.17-.26-3.49-2.94-6.2-6.49-6.45-4.49-.32-7.85,3.29-7.52,7.59.29,3.59,3.1,6.2,6.58,6.42h0ZM8.51,8.95c.91-.93,2-1.61,3.84-1.71,3.32-.19,6.1,2.3,6.1,5.72,0,3.64-2.87,5.81-5.74,5.81-3.1,0-5.84-2.32-5.84-5.81,0-1.71.78-3.13,1.64-4.01h0ZM13.29,8.02c-3.48.16-5.49,2.2-5.52,5.65,1.01-2.71,2.94-4.49,5.52-5.65h0Z"/>
  </g>
</svg>