<?xml version="1.0" encoding="UTF-8"?>
<svg id="Layer_2" data-name="Layer 2" xmlns="http://www.w3.org/2000/svg" viewBox="0 0 28.35 28.35">
  <defs>
    <style>
      .cls-1 {
        fill: #296740;
        fill-rule: evenodd;
      }

      .cls-2 {
        fill: none;
      }
    </style>
  </defs>
  <g id="Layer_1-2" data-name="Layer 1">
    <g id="_Grid_Repeat_" data-name="&amp;lt;Grid Repeat&amp;gt;">
      <circle class="cls-2" cx="14.17" cy="14.17" r="14.17"/>
    </g>
    <path class="cls-1" d="M8.55,7.29s0-.54-.84-1.22c0,0,.42.15,1.02,1.01v-.02s.06-1.2-1.97-1.64c0,0,.95,2.32,1.8,1.88h0ZM8.79,6.66c.8-1.28,1.43-1.52,1.43-1.52-1.19,1.04-1.13,1.76-1.13,1.76,1.38.54,2.6-2.77,2.6-2.77-3.19.83-2.9,2.51-2.9,2.51v.03ZM8.57,8.65h.27c-.18-1.25.27-2.29.27-2.29-.54.77-.54,2.29-.54,2.29h0ZM10.37,14.71s-.03.06-.03.09l-.45-5.2c-.03-.44-.21-.8-.66-.8h-.96c-.47,0-.89.39-.89,2.3l-.41,10.87h14.63v-6.84c0-.09-.03-.21-.06-.3h.03c-.03-.18-.09-.33-.21-.47l-1.34-1.31c-.31-.3-.78-.3-1.05,0l-1.22,1.19h-.03l-1.22-1.19c-.3-.3-.78-.3-1.08,0l-1.19,1.19h-.06l-1.22-1.19c-.27-.3-.75-.3-1.05,0l-1.34,1.31c-.08.11-.15.24-.18.35h0Z"/>
  </g>
</svg>