<?xml version="1.0" encoding="UTF-8"?>
<svg id="Layer_2" data-name="Layer 2" xmlns="http://www.w3.org/2000/svg" viewBox="0 0 28.35 28.35">
  <defs>
    <style>
      .cls-1 {
        fill: #296740;
        fill-rule: evenodd;
      }

      .cls-2 {
        fill: none;
      }
    </style>
  </defs>
  <g id="Layer_1-2" data-name="Layer 1">
    <g id="_Grid_Repeat_" data-name="&amp;lt;Grid Repeat&amp;gt;">
      <circle class="cls-2" cx="14.17" cy="14.17" r="14.17"/>
    </g>
    <path class="cls-1" d="M14.6,17.5l-.29,4.86h2.9c-.22-2.67-.15-3.54-.15-3.54,0,0,2.2-1.72,3.25-2.79,1.05-1.07,1.27-1.96,1.27-1.96,0,0,.62-2.05.84-2.72.2-.67-.07-1.25-.84-.58-.78.65-1.2,2.25-1.3,3.08-.11.8-1.74,2.25-1.96,2.41-.2.15-.6-.05-.18-.42.4-.38,2.21-1.81,1.58-2.41-.62-.61-1.44.76-3.03,2.09-1.58,1.34-2.09,1.99-2.09,1.99h0ZM14.11,12.36v.11c1.38-2.48,2.56-2.63,2.56-2.63-2.16,1.67-1.92,3.34-1.92,3.34,2.81,1.99,4.62-4.93,4.62-4.93-6.15.11-5.26,4.1-5.26,4.1h0ZM6.76,14.06s.25.89,1.3,1.96c1.04,1.07,3.23,2.79,3.23,2.79,0,0,.09.87-.15,3.54h2.89l-.25-4.86s-.53-.64-2.12-1.99c-1.6-1.34-2.41-2.7-3.05-2.09-.62.6,1.2,2.03,1.6,2.41.41.38.02.58-.2.42-.2-.15-1.85-1.6-1.94-2.41-.11-.82-.51-2.43-1.29-3.08-.78-.67-1.07-.09-.85.58.21.67.83,2.72.83,2.72h0ZM13.74,9.43s.55-.94-.34-2.48c0,0,.67.38.89,2.19l.02-.05s1.5-2.16-2.14-3.74c0,0-.6,4.57,1.56,4.08h0ZM13.49,13.04s-.02-1.39-2.05-2.45c0,0,.98-.05,2.48,1.78v-.09s.15-3.39-4.91-2.61c0,0,2.48,5.42,4.49,3.37h0Z"/>
  </g>
</svg>