<?xml version="1.0" encoding="UTF-8"?>
<svg id="Layer_2" data-name="Layer 2" xmlns="http://www.w3.org/2000/svg" viewBox="0 0 28.35 28.35">
  <defs>
    <style>
      .cls-1 {
        fill: #296740;
        fill-rule: evenodd;
      }

      .cls-2 {
        fill: none;
      }
    </style>
  </defs>
  <g id="Layer_1-2" data-name="Layer 1">
    <g id="_Grid_Repeat_" data-name="&amp;lt;Grid Repeat&amp;gt;">
      <circle class="cls-2" cx="14.17" cy="14.17" r="14.17"/>
    </g>
    <path class="cls-1" d="M22.74,5.9H5.61v17.01h17.13V5.9ZM21.61,21.77H6.73V7.14s0-.09.04-.12h14.84v14.74ZM10,13.25v.62c-.15.02-.34.02-.38.16v2.91c.34.4,1.21.4,1.6.02v-2.99c-.1-.07-.29-.04-.36-.12v-.65c1.2-.28,2.03-1,2.15-2.24.16-1.67-1.1-3.08-2.82-2.91-.6.04-1.15.33-1.5.64-1.6,1.39-.79,4.24,1.31,4.53h0ZM10.16,8.72c1.26-.19,2.48.89,2.24,2.34-.24,1.38-1.86,2.03-3,1.36-1.58-.91-1.17-3.44.76-3.7h0ZM14.17,11.49h5.87v-1.09h-5.82c-.1.31-.02.74-.05,1.09h0ZM12.5,14.4v1.05h7.54v-1.15h-7.49s-.05.05-.05.1h0ZM8.16,18.31v1.05h11.88v-1.14h-11.85s-.02.05-.02.09h0Z"/>
  </g>
</svg>