<?xml version="1.0" encoding="UTF-8"?>
<svg id="Layer_2" data-name="Layer 2" xmlns="http://www.w3.org/2000/svg" viewBox="0 0 28.35 28.35">
  <defs>
    <style>
      .cls-1 {
        fill: none;
      }

      .cls-2 {
        fill: #296740;
      }
    </style>
  </defs>
  <g id="Layer_1-2" data-name="Layer 1">
    <g id="_Grid_Repeat_" data-name="&amp;lt;Grid Repeat&amp;gt;">
      <circle class="cls-1" cx="14.17" cy="14.17" r="14.17"/>
    </g>
    <path class="cls-2" d="M9.42,13.23h-2.96v-2.77h2.96v2.77ZM7.33,23.88h12.58v-1.59H7.33v1.59ZM15.5,10.46v11.55h-3.76v-11.55h3.76ZM13.92,21.33l-1.48-.86v.86h1.48ZM14.79,18.19l-2.35,1.36,2.35,1.36v-2.72ZM14.79,17.27l-2.35-1.36v2.73l2.35-1.36ZM14.79,13.63l-2.35,1.36,2.35,1.36v-2.72ZM14.79,12.71l-2.35-1.36v2.72l2.35-1.36ZM14.79,11.05h-1.28l1.28.74v-.74ZM21.34,18.47c-.11-.04-.13-.23-.13-.27v-.03h-.51v.19c0,.27.16.42.26.48,0,0,.01,0,.02.01.07.04.16.1.16.28,0,.1-.06.28-.28.28-.18,0-.28-.21-.3-.35-.03-.17-.12-.25-.2-.32,0,0-.01-.01-.02-.02-.03-.03-.08-.04-.12-.04-.05,0-.1.02-.12.06-.02.03-.03.08-.01.12.04.11.04.28.04.4,0,.52.35.86.86.86.23,0,.44-.09.59-.24.15-.16.23-.38.23-.61,0-.33-.21-.69-.46-.79ZM21.78,9.96v5.83l.14.16c.05.06.07.17.06.25l-.32,1.7c-.02.1-.12.17-.22.17h-.97c-.11,0-.2-.07-.23-.17l-.32-1.7c-.01-.08.01-.19.06-.25l.11-.12v-5.87H6.47v-.98h.79l6.02-5.39v-.53h.67v.52l6.72,5.4h2.8v.98h-1.69ZM13.28,4.15l-5.4,4.82h3.61v-2.78h1.79v-2.04ZM15.23,6.53h-1.76v.91l1.76.4v-1.31ZM20,8.98l-6.05-4.87v2.09h1.79v2.78h4.26ZM20.34,15.57s.12-.06.17-.06h.89s.08.01.13.04v-5.58h-1.19v5.6ZM20.12,16.44l.78-.78h-.4s-.1.02-.12.05l-.29.34s-.04.1-.02.13l.05.26ZM21.62,15.85l-.11-.14s-.06-.02-.08-.04l-1.22,1.21.06.32,1.36-1.36ZM21.61,17.34l-.59.58h.42s.06-.02.06-.05l.11-.53ZM20.35,17.65l.05.22s.04.05.07.05h.02l1.24-1.24.1-.49-1.48,1.46Z"/>
  </g>
</svg>