<?xml version="1.0" encoding="UTF-8"?>
<svg id="Layer_2" data-name="Layer 2" xmlns="http://www.w3.org/2000/svg" viewBox="0 0 28.35 28.35">
  <defs>
    <style>
      .cls-1 {
        fill: #296740;
        fill-rule: evenodd;
      }

      .cls-2 {
        fill: none;
      }
    </style>
  </defs>
  <g id="Layer_1-2" data-name="Layer 1">
    <g id="_Grid_Repeat_" data-name="&amp;lt;Grid Repeat&amp;gt;">
      <path class="cls-2" d="M28.35,14.17c0,7.83-6.35,14.17-14.17,14.17S0,22,0,14.17,6.35,0,14.17,0s14.17,6.35,14.17,14.17Z"/>
    </g>
    <path class="cls-1" d="M15.64,3.05c-.17.26-.39.48-.53.77.53.43,1.11.79,1.65,1.2-.6.84-1.17,1.66-1.78,2.47,1.01,1.35,2.06,2.59,3.05,3.94,1.51.45,2.97.93,4.41,1.44.7-.74,1.2-1.65,1.85-2.47.26.17.48.36.77.53-.38.58-.79,1.13-1.22,1.68-.05.15-.26-.19-.39-.22-.43.45-.72,1.03-1.12,1.49.38.36.88.63,1.27.96.43-.44.72-1.03,1.12-1.49,0-.17-.26-.07-.24-.31.44-.5.79-1.06,1.18-1.61.17-.05.33.22.5.29.24-.21.41-.5.57-.77-3.62-2.69-7.37-5.26-11.03-7.89h-.07ZM7.02,18.16v-8.67h8.69c0-.28-.31-.57-.49-.84H6.21v10.34h4.9c.55,0,1.17.1,1.6,0,.48-.09.87-.65,1.25-.84h-6.93ZM12.06,11.82h4.77v-.65h-4.72c-.1.14-.02.43-.05.65h0ZM10.31,13.48h8.3v-.74h-8.27c-.1.17,0,.5-.02.74h0ZM21.3,18.16h-.36c.34.33.41.93,1.2.84v-5.78c-.28-.07-.52-.22-.84-.26v5.21ZM18.61,14.83v-.68h-8.27c-.1.15,0,.46-.02.68h8.3ZM18.61,16.15v-.68h-8.27c-.1.15,0,.45-.02.68h8.3ZM18.44,20.08c.43-.17.88-.58,1.03-1.01.48-1.3-.45-2.54-1.75-2.47-.96.05-1.44.62-1.61,1.03-.65,1.49.84,2.97,2.33,2.45h0ZM13.19,19.84c.58.24,1.25.43,1.8.72.1.63.17,1.25.24,1.87.68-.45,1.3-.93,1.9-1.46-.74-.84-1.37-1.8-2.14-2.62-.57.53-1.27.93-1.8,1.49h0ZM17.75,21.09c.55.58.93,1.3,1.54,1.8.19-.62.43-1.22.67-1.8.65-.07,1.27-.17,1.9-.24-.46-.67-.96-1.3-1.49-1.89-.81.77-1.78,1.36-2.61,2.13h0Z"/>
  </g>
</svg>