<?xml version="1.0" encoding="UTF-8"?>
<svg id="Layer_2" data-name="Layer 2" xmlns="http://www.w3.org/2000/svg" viewBox="0 0 28.35 28.35">
  <defs>
    <style>
      .cls-1 {
        fill: none;
      }

      .cls-2 {
        fill: #296740;
      }
    </style>
  </defs>
  <g id="Layer_1-2" data-name="Layer 1">
    <g id="_Grid_Repeat_" data-name="&amp;lt;Grid Repeat&amp;gt;">
      <circle class="cls-1" cx="14.17" cy="14.17" r="14.17"/>
    </g>
    <path class="cls-2" d="M22.68,23.51v-11.7h-4.25c-.05,0-.05.08-.05.13v6.32c1.07.01,2.24-.06,3.23.03v5.21h-.36v-4.89h-7.49c-.09,1.53-.02,3.26-.03,4.89h-.37v-3.81h-1.44c.02-.23-.05-.58.04-.73.44-.06,1.11.11,1.4-.08v-.23c-.38-.12-.98-.02-1.44-.04.02-.23-.05-.57.04-.73h2.83v.37h.71V6.42h-.71v-.71h-.71v-.73c-.12-.02-.33.05-.36-.04v-2.11h-.73v2.15h-.36c-.02.23.08.57-.04.73h-.67c-.03.21.06.55-.03.71h-.69v12.81c-.98.17-1.46.8-1.82,1.57-1.05-1.05-3.45-.44-3.33,1.26.48-.02.4-.4.59-.73.65-1.15,2.53-.69,2.91.33.29-.96.61-1.84,1.65-2.03v2.33c.49.36.96.74,1.01,1.54h-.27c-.18-1.11-1.55-1.87-2.57-1.17-.27.17-.34.46-.63.67-.33-1.31-3.24-1.29-3.05.51h-1.2c.42.43.86.84,1.33,1.21h16.72c.47-.37.92-.78,1.33-1.21h-1.19ZM19.81,17.53h-.71v-.71h.71v.71ZM19.81,16.45h-.71v-.71h.71v.71ZM19.81,15.39h-.71v-.71h.71v.71ZM19.81,14.31h-.71v-.71h.71v.71ZM19.81,13.24h-.71v-.73h.71v.73ZM21.24,12.51h.71v.73h-.71v-.73ZM21.24,13.6h.71v.71h-.71v-.71ZM21.24,14.68h.71v.71h-.71v-.71ZM21.24,15.75h.71v.71h-.71v-.71ZM20.87,17.53h-.71v-.71h.71v.71ZM20.87,16.45h-.71v-.71h.71v.71ZM20.87,15.39h-.71v-.71h.71v.71ZM20.87,14.31h-.71v-.71h.71v.71ZM20.87,13.24h-.71v-.73h.71v.73ZM21.24,17.53v-.71h.71v.71h-.71ZM11.92,7.13h2.87v.73h-2.87v-.73ZM11.92,8.23h2.87v.71h-2.87v-.71ZM11.92,9.29h2.87v.73h-2.87v-.73ZM11.92,10.37h2.87v.73h-2.87v-.73ZM11.92,11.44h2.87v.73h-2.87v-.73ZM11.92,12.51h2.87v.73h-2.87v-.73ZM11.92,13.6h2.87v.71h-2.87v-.71ZM11.92,14.68h2.87v.71h-2.87v-.71ZM11.92,15.75h2.87v.71h-2.87v-.71ZM11.92,16.82h2.87v.71h-2.87v-.71ZM14.42,20.04h6.11v3.47h-.36v-3.11h-5.38v3.11h-.36v-3.47ZM15.56,21.84h1.74v.94c0,.25-.06.56.02.74h-1.81c.02-.56-.05-1.19.06-1.67ZM17.7,21.84h1.74v1.67h-1.84c.14-.44-.04-1.23.1-1.67ZM18.01,12.17h-2.15v-.36h2.15v.36ZM15.86,11.04v-.23c.88-.21,2.15-.02,3.18-.08.1-.15.02-.5.04-.73-1.05-.02-2.24.06-3.21-.04v-.23c.88-.21,2.15-.04,3.18-.09.1-.14.02-.48.04-.71h-3.21v-1.44h3.23v.67c.14.11.48.02.71.04v3.23h-.71v-.34c-1.07-.04-2.24.03-3.23-.06ZM15.9,13.95h2.11v4.31h-2.15c.04-1.42-.06-2.97.04-4.31ZM18.01,13.24h-2.15v-.36h2.15v.36Z"/>
  </g>
</svg>