<?xml version="1.0" encoding="UTF-8"?>
<svg id="Layer_2" data-name="Layer 2" xmlns="http://www.w3.org/2000/svg" viewBox="0 0 28.35 28.35">
  <defs>
    <style>
      .cls-1 {
        fill: #296740;
        fill-rule: evenodd;
      }

      .cls-2 {
        fill: none;
      }
    </style>
  </defs>
  <g id="Layer_1-2" data-name="Layer 1">
    <g id="_Grid_Repeat_" data-name="&amp;lt;Grid Repeat&amp;gt;">
      <circle class="cls-2" cx="14.17" cy="14.17" r="14.17"/>
    </g>
    <path class="cls-1" d="M14.22,14.79l.56.57h.03l.57-.57.5.51,1.04-1.04-.98-.95-.48-.5-2.02-2.03-1.04,1.04.53.53-.56.6,1.84,1.84ZM19.54,11.96l2.53-2.56-.47-.47.75-.78-.62-.63.95-.98-1.73-1.72-.98.98-.47-.51-.75.78-.53-.53-4.5,4.49,2.33,2.36,1.55,1.55,1.4-1.43c1.55.35,2.74,1.72,2.74,3.42,0,1.46-.92,2.71-2.2,3.22-.15-1.08-1.07-1.94-2.18-1.94-.74,0-1.36.39-1.78.92,0,.03-.03.03-.06.06l-1.31-1.34-5.09-5.09-.59.59,6.67,6.67c-.03.12-.06.27-.06.39,0,.21.03.39.09.59h-5.72v-1.34c.51.06,1.04-.09,1.43-.47.05-.06.11-.12.15-.21l-2.33-2.32c-.08.05-.14.08-.21.15-.66.66-.66,1.73,0,2.39.03.03.06.03.06.03v1.78h-2.11c-.45,0-.81.36-.81.8s.36.84.81.84h12.21c.42,0,.78-.39.78-.84,0-.14-.06-.33-.12-.44.06-.15.12-.3.15-.48,1.69-.53,2.91-2.11,2.91-3.96s-1.19-3.42-2.86-3.96h0Z"/>
  </g>
</svg>