<?xml version="1.0" encoding="UTF-8"?>
<svg id="Layer_2" data-name="Layer 2" xmlns="http://www.w3.org/2000/svg" viewBox="0 0 77.57 77.57">
  <defs>
    <style>
      .cls-1 {
        fill: #fff;
      }

      .cls-2 {
        fill: #296740;
      }
    </style>
  </defs>
  <g id="Layer_1-2" data-name="Layer 1">
    <g>
      <path class="cls-1" d="M68.57,0H9C4.03,0,0,4.03,0,9v59.57c0,4.97,4.03,9,9,9h59.57c4.97,0,9-4.03,9-9V9c0-4.97-4.03-9-9-9ZM23.84,63.38h-14.05V14.19h14.05v49.19ZM67.78,29.59l-10.76,33.78h-3.29v-18.13h-11.94v18.13h-14.05V14.19h14.05v17.43h11.94V14.19h14.05v15.4Z"/>
      <polygon class="cls-2" points="53.72 31.62 41.78 31.62 41.78 14.19 27.73 14.19 27.73 63.38 41.78 63.38 41.78 45.25 53.72 45.25 53.72 63.38 57.01 63.38 67.78 29.59 67.78 14.19 53.72 14.19 53.72 31.62"/>
      <rect class="cls-2" x="9.79" y="14.19" width="14.05" height="49.19"/>
    </g>
  </g>
</svg>