<?xml version="1.0" encoding="UTF-8"?>
<svg id="Layer_2" data-name="Layer 2" xmlns="http://www.w3.org/2000/svg" viewBox="0 0 220.26 135.8">
  <defs>
    <style>
      .cls-1 {
        fill: #508450;
      }

      .cls-2 {
        fill: #296740;
      }

      .cls-3 {
        fill: #935442;
      }
    </style>
  </defs>
  <g id="Layer_1-2" data-name="Layer 1">
    <g>
      <path class="cls-3" d="M17.85,96.42h3.53v15.44h-3.53v-15.44ZM33.31,101.74c.79.82,1.19,1.92,1.19,3.35v6.77h-3.31v-6.28c0-1.3-.79-2.01-1.92-2.01-1.26,0-2.05.77-2.05,2.27v6.02h-3.31v-11.03h3.31v1.04c.66-.9,1.72-1.35,3.15-1.35,1.17,0,2.16.4,2.93,1.21ZM44.78,96.42h3.31v15.44h-3.31v-1.04c-.77.9-1.87,1.34-3.29,1.34s-2.69-.55-3.73-1.68-1.54-2.51-1.54-4.15.51-3,1.54-4.12c1.04-1.12,2.27-1.7,3.73-1.7s2.51.44,3.29,1.35v-5.45ZM42.15,109.04c.77,0,1.41-.24,1.9-.73s.73-1.15.73-1.96-.24-1.48-.73-1.96-1.12-.73-1.9-.73-1.41.24-1.9.73-.73,1.15-.73,1.96.24,1.48.73,1.96,1.12.73,1.9.73ZM57.63,100.83h3.31v11.03h-3.31v-1.04c-.66.9-1.72,1.34-3.15,1.34-1.17,0-2.16-.4-2.95-1.21-.77-.82-1.17-1.92-1.17-3.35v-6.77h3.31v6.28c0,1.3.79,2.01,1.92,2.01,1.26,0,2.05-.77,2.05-2.27v-6.02ZM68.31,105.02c1.52.33,3.53,1.12,3.51,3.53,0,1.19-.44,2.1-1.32,2.71-.88.6-1.96.9-3.26.9-2.32,0-3.9-.88-4.74-2.62l2.87-1.63c.29.86.93,1.3,1.87,1.3.79,0,1.19-.22,1.19-.68s-.86-.71-1.92-.97c-1.52-.42-3.51-1.17-3.51-3.42,0-1.15.42-2.03,1.23-2.67.84-.64,1.87-.95,3.09-.95,1.83,0,3.4.84,4.3,2.36l-2.82,1.52c-.35-.64-.84-.97-1.48-.97s-.93.2-.93.62c0,.44.86.68,1.92.97ZM79.6,104.01h-2.27v3.9c0,.88.66,1.04,2.27.95v3c-2.09.22-3.55.02-4.37-.6-.82-.64-1.21-1.74-1.21-3.35v-3.9h-1.76v-3.18h1.76v-2.09l3.31-.99v3.09h2.27v3.18ZM85,102.8c.42-1.41,1.81-2.18,3.31-2.18v3.75c-.82-.13-1.57,0-2.27.42-.68.4-1.04,1.1-1.04,2.1v4.98h-3.31v-11.03h3.31v1.96ZM90.1,99.29c-.77-.79-.77-2.03,0-2.8s2.03-.79,2.8,0c.79.77.79,2.01,0,2.8s-2.01.77-2.8,0ZM89.85,111.86v-11.03h3.31v11.03h-3.31ZM103.59,100.83h3.31v11.03h-3.31v-1.04c-.77.9-1.87,1.34-3.29,1.34s-2.69-.55-3.73-1.68-1.54-2.51-1.54-4.15.51-3,1.54-4.12c1.04-1.12,2.27-1.7,3.73-1.7s2.51.44,3.29,1.35v-1.04ZM100.97,109.04c.77,0,1.41-.24,1.9-.73s.73-1.15.73-1.96-.24-1.48-.73-1.96-1.12-.73-1.9-.73-1.41.24-1.9.73-.73,1.15-.73,1.96.24,1.48.73,1.96,1.12.73,1.9.73ZM109.33,111.86v-16.1h3.31v16.1h-3.31ZM129.06,96.42h3.53v15.44h-3.53v-6.13h-4.85v6.13h-3.53v-15.44h3.53v5.91h4.85v-5.91ZM142.07,100.83h3.53l-3.77,10.69c-1.23,3.46-3.18,4.9-6.28,4.74v-3.09c1.52,0,2.25-.49,2.76-1.83l-4.39-10.52h3.64l2.45,6.75,2.07-6.75ZM154.47,100.83h3.22v10.47c0,1.74-.57,3.04-1.7,3.92-1.12.9-2.51,1.35-4.12,1.35-2.49,0-4.23-.88-5.23-2.67l2.82-1.63c.51.93,1.35,1.39,2.51,1.39,1.57,0,2.49-.84,2.49-2.36v-1.01c-.77.95-1.83,1.43-3.22,1.43-1.54,0-2.84-.55-3.88-1.63-1.04-1.1-1.54-2.43-1.54-3.97s.51-2.87,1.54-3.95c1.04-1.1,2.34-1.65,3.88-1.65,1.39,0,2.45.49,3.22,1.43v-1.12ZM151.8,108.68c.77,0,1.41-.24,1.92-.71.51-.46.75-1.08.75-1.85s-.24-1.39-.75-1.85c-.51-.46-1.15-.71-1.92-.71s-1.41.24-1.92.71c-.51.46-.75,1.08-.75,1.85s.24,1.39.75,1.85c.51.46,1.15.71,1.92.71ZM160.36,99.29c-.77-.79-.77-2.03,0-2.8s2.03-.79,2.8,0c.79.77.79,2.01,0,2.8s-2.01.77-2.8,0ZM160.11,111.86v-11.03h3.31v11.03h-3.31ZM168.8,107.67c.37,1.04,1.26,1.54,2.65,1.54.9,0,1.61-.29,2.12-.84l2.65,1.52c-1.08,1.52-2.69,2.27-4.81,2.27-1.85,0-3.33-.55-4.45-1.65-1.1-1.1-1.65-2.49-1.65-4.17s.55-3.04,1.63-4.15c1.1-1.12,2.51-1.68,4.23-1.68,1.61,0,2.93.55,3.99,1.68,1.08,1.1,1.61,2.49,1.61,4.15,0,.46-.04.9-.13,1.32h-7.83ZM173.48,105.2c-.33-1.17-1.1-1.74-2.34-1.74s-2.07.57-2.4,1.74h4.74ZM188.03,101.74c.79.82,1.19,1.92,1.19,3.35v6.77h-3.31v-6.28c0-1.3-.79-2.01-1.92-2.01-1.26,0-2.05.77-2.05,2.27v6.02h-3.31v-11.03h3.31v1.04c.66-.9,1.72-1.35,3.15-1.35,1.17,0,2.16.4,2.93,1.21ZM194.45,107.67c.37,1.04,1.26,1.54,2.65,1.54.9,0,1.61-.29,2.12-.84l2.65,1.52c-1.08,1.52-2.69,2.27-4.81,2.27-1.85,0-3.33-.55-4.45-1.65-1.1-1.1-1.65-2.49-1.65-4.17s.55-3.04,1.63-4.15c1.1-1.12,2.51-1.68,4.23-1.68,1.61,0,2.93.55,3.99,1.68,1.08,1.1,1.61,2.49,1.61,4.15,0,.46-.04.9-.13,1.32h-7.83ZM199.12,105.2c-.33-1.17-1.1-1.74-2.34-1.74s-2.07.57-2.4,1.74h4.74Z"/>
      <path class="cls-3" d="M9.37,123.45H3.53v2.98h5.73v3.4H3.53v5.67H0v-15.44h9.37v3.4ZM16.65,135.8c-1.63,0-3.02-.55-4.15-1.68s-1.7-2.51-1.7-4.15.57-3,1.7-4.12c1.12-1.12,2.51-1.7,4.15-1.7s3.02.57,4.15,1.7c1.12,1.12,1.7,2.49,1.7,4.12s-.57,3.02-1.7,4.15-2.51,1.68-4.15,1.68ZM16.65,132.58c.73,0,1.32-.24,1.81-.73s.73-1.1.73-1.87-.24-1.39-.73-1.87-1.08-.73-1.81-.73-1.32.24-1.81.73-.73,1.1-.73,1.87.24,1.39.73,1.87,1.08.73,1.81.73ZM27.68,126.42c.42-1.41,1.81-2.18,3.31-2.18v3.75c-.82-.13-1.57,0-2.27.42-.68.4-1.04,1.1-1.04,2.1v4.98h-3.31v-11.03h3.31v1.96ZM35.15,131.3c.37,1.04,1.26,1.54,2.65,1.54.9,0,1.61-.29,2.12-.84l2.65,1.52c-1.08,1.52-2.69,2.27-4.81,2.27-1.85,0-3.33-.55-4.45-1.65-1.1-1.1-1.65-2.49-1.65-4.17s.55-3.04,1.63-4.15c1.1-1.12,2.51-1.68,4.23-1.68,1.61,0,2.93.55,3.99,1.68,1.08,1.1,1.61,2.49,1.61,4.15,0,.46-.04.9-.13,1.32h-7.83ZM39.83,128.83c-.33-1.17-1.1-1.74-2.34-1.74s-2.07.57-2.4,1.74h4.74ZM54.38,125.37c.79.82,1.19,1.92,1.19,3.35v6.77h-3.31v-6.28c0-1.3-.79-2.01-1.92-2.01-1.26,0-2.05.77-2.05,2.27v6.02h-3.31v-11.03h3.31v1.04c.66-.9,1.72-1.35,3.15-1.35,1.17,0,2.16.4,2.93,1.21ZM62.89,128.65c1.52.33,3.53,1.12,3.51,3.53,0,1.19-.44,2.1-1.32,2.71-.88.6-1.96.9-3.26.9-2.32,0-3.9-.88-4.74-2.62l2.87-1.63c.29.86.93,1.3,1.87,1.3.79,0,1.19-.22,1.19-.68s-.86-.71-1.92-.97c-1.52-.42-3.51-1.17-3.51-3.42,0-1.15.42-2.03,1.23-2.67.84-.64,1.87-.95,3.09-.95,1.83,0,3.4.84,4.3,2.36l-2.82,1.52c-.35-.64-.84-.97-1.48-.97s-.93.2-.93.62c0,.44.86.68,1.92.97ZM68.3,122.92c-.77-.79-.77-2.03,0-2.8s2.03-.79,2.8,0c.79.77.79,2.01,0,2.8s-2.01.77-2.8,0ZM68.05,135.49v-11.03h3.31v11.03h-3.31ZM74.89,134.12c-1.1-1.12-1.65-2.49-1.65-4.15s.55-3.02,1.65-4.15c1.12-1.12,2.51-1.68,4.19-1.68,2.12,0,4.01,1.12,4.98,2.82l-2.89,1.68c-.4-.82-1.1-1.24-2.14-1.24-1.43,0-2.49,1.06-2.49,2.56s1.06,2.56,2.49,2.56c1.04,0,1.76-.42,2.14-1.23l2.89,1.65c-.97,1.74-2.84,2.84-4.98,2.84-1.68,0-3.07-.55-4.19-1.68ZM90.44,128.65c1.52.33,3.53,1.12,3.51,3.53,0,1.19-.44,2.1-1.32,2.71-.88.6-1.96.9-3.26.9-2.32,0-3.9-.88-4.74-2.62l2.87-1.63c.29.86.93,1.3,1.87,1.3.79,0,1.19-.22,1.19-.68s-.86-.71-1.92-.97c-1.52-.42-3.51-1.17-3.51-3.42,0-1.15.42-2.03,1.23-2.67.84-.64,1.87-.95,3.09-.95,1.83,0,3.4.84,4.3,2.36l-2.82,1.52c-.35-.64-.84-.97-1.48-.97s-.93.2-.93.62c0,.44.86.68,1.92.97ZM101.88,134.08c-.99-1.12-1.32-2.56-1.01-4.3.31-1.7,1.12-3.06,2.43-4.08,1.3-1.01,2.76-1.52,4.37-1.52s2.84.57,3.79,1.7,1.28,2.56.99,4.26c-.29,1.74-1.08,3.11-2.36,4.12-1.28,1.01-2.71,1.52-4.28,1.52s-2.93-.57-3.93-1.7ZM108.9,132.84c.9-.71,1.46-1.68,1.65-2.91.2-1.19-.02-2.14-.66-2.82-.64-.71-1.48-1.06-2.54-1.06-1.04.02-2.01.38-2.89,1.06-.88.68-1.43,1.65-1.68,2.87-.2,1.23,0,2.21.64,2.91.64.68,1.5,1.04,2.54,1.01,1.08,0,2.05-.35,2.93-1.06ZM116.22,124.13c.55-3.02,2.49-4.56,5.6-4.37l-.35,1.85c-1.87-.15-3,.68-3.33,2.51l-.07.33h2.91l-.33,1.85h-2.89l-1.63,9.17h-1.92l1.63-9.17h-1.79l.33-1.85h1.76l.07-.33ZM136.68,135.49l-.77-2.43h-5.73l-.77,2.43h-3.86l5.25-15.44h4.5l5.25,15.44h-3.86ZM131.23,129.75h3.62l-1.81-5.67-1.81,5.67ZM157.15,125.41c.77.82,1.15,1.92,1.15,3.31v6.77h-3.31v-6.48c0-1.12-.55-1.81-1.59-1.81s-1.72.77-1.72,2.07v6.22h-3.31v-6.48c0-1.12-.55-1.81-1.59-1.81s-1.72.77-1.72,2.07v6.22h-3.31v-11.03h3.31v1.01c.6-.88,1.59-1.32,2.96-1.32,1.28,0,2.25.49,2.89,1.46.68-.97,1.74-1.46,3.2-1.46,1.26,0,2.27.42,3.04,1.26ZM163.52,131.3c.37,1.04,1.26,1.54,2.65,1.54.9,0,1.61-.29,2.12-.84l2.65,1.52c-1.08,1.52-2.69,2.27-4.81,2.27-1.85,0-3.33-.55-4.45-1.65-1.1-1.1-1.65-2.49-1.65-4.17s.55-3.04,1.63-4.15c1.1-1.12,2.51-1.68,4.23-1.68,1.61,0,2.93.55,3.99,1.68,1.08,1.1,1.61,2.49,1.61,4.15,0,.46-.04.9-.13,1.32h-7.83ZM168.19,128.83c-.33-1.17-1.1-1.74-2.34-1.74s-2.07.57-2.4,1.74h4.74ZM176.66,126.42c.42-1.41,1.81-2.18,3.31-2.18v3.75c-.82-.13-1.57,0-2.27.42-.68.4-1.04,1.1-1.04,2.1v4.98h-3.31v-11.03h3.31v1.96ZM181.76,122.92c-.77-.79-.77-2.03,0-2.8s2.03-.79,2.8,0c.79.77.79,2.01,0,2.8s-2.01.77-2.8,0ZM181.51,135.49v-11.03h3.31v11.03h-3.31ZM188.35,134.12c-1.1-1.12-1.65-2.49-1.65-4.15s.55-3.02,1.65-4.15c1.12-1.12,2.51-1.68,4.19-1.68,2.12,0,4.01,1.12,4.98,2.82l-2.89,1.68c-.4-.82-1.1-1.24-2.14-1.24-1.43,0-2.49,1.06-2.49,2.56s1.06,2.56,2.49,2.56c1.04,0,1.76-.42,2.14-1.23l2.89,1.65c-.97,1.74-2.84,2.84-4.98,2.84-1.68,0-3.07-.55-4.19-1.68ZM206.08,124.46h3.31v11.03h-3.31v-1.04c-.66.9-1.72,1.34-3.15,1.34-1.17,0-2.16-.4-2.95-1.21-.77-.82-1.17-1.92-1.17-3.35v-6.77h3.31v6.28c0,1.3.79,2.01,1.92,2.01,1.26,0,2.05-.77,2.05-2.27v-6.02ZM216.75,128.65c1.52.33,3.53,1.12,3.51,3.53,0,1.19-.44,2.1-1.32,2.71-.88.6-1.96.9-3.26.9-2.32,0-3.9-.88-4.74-2.62l2.87-1.63c.29.86.93,1.3,1.87,1.3.79,0,1.19-.22,1.19-.68s-.86-.71-1.92-.97c-1.52-.42-3.51-1.17-3.51-3.42,0-1.15.42-2.03,1.23-2.67.84-.64,1.87-.95,3.09-.95,1.83,0,3.4.84,4.3,2.36l-2.82,1.52c-.35-.64-.84-.97-1.48-.97s-.93.2-.93.62c0,.44.86.68,1.92.97Z"/>
    </g>
    <g>
      <path class="cls-2" d="M119.9,75.27c-4.46-4.38-6.69-9.69-6.69-16.13s2.23-11.76,6.69-16.13,9.95-6.52,16.39-6.52,11.93,2.14,16.39,6.52c4.46,4.38,6.69,9.7,6.69,16.13s-2.23,11.75-6.69,16.13c-4.46,4.38-9.95,6.52-16.39,6.52s-11.84-2.15-16.39-6.52ZM136.29,66.69c2.15,0,3.86-.69,5.15-2.06,1.37-1.46,2.06-3.26,2.06-5.49s-.69-4.03-2.06-5.41c-1.29-1.46-3-2.14-5.15-2.14s-3.86.69-5.23,2.14c-1.29,1.37-1.97,3.18-1.97,5.41s.69,4.03,1.97,5.49c1.37,1.37,3.09,2.06,5.23,2.06ZM197.78,80.59l-2.06-7.72h-17.33l-2.06,7.72h-18.45l19.13-60.06h20.08l19.14,60.06h-18.45ZM182.08,59.14h9.95l-4.98-18.45-4.98,18.45ZM109.09,37.17v-16.65h-24.18l-13.14,41.26v18.81h17.16v-18.96h19.74v-16.65h-19.74v-7.81h20.16Z"/>
      <path class="cls-1" d="M4.03,0h17.16v60.06H4.03V0ZM61.7,60.06l13.14-41.26V0h-17.16v21.28h-14.59V0h-17.16v60.06h17.16v-22.14h14.59v22.14h4.02Z"/>
    </g>
  </g>
</svg>