<?xml version="1.0" encoding="UTF-8"?>
<svg id="Layer_2" xmlns="http://www.w3.org/2000/svg" version="1.1" viewBox="0 0 212.2 101.2">
  
  <defs>
    
  </defs>
  <g id="Layer_1-2">
    <path class="st0" d="M115.9,75.3c-4.5-4.4-6.7-9.7-6.7-16.1s2.2-11.8,6.7-16.1,9.9-6.5,16.4-6.5,11.9,2.1,16.4,6.5,6.7,9.7,6.7,16.1-2.2,11.8-6.7,16.1-9.9,6.5-16.4,6.5-11.8-2.2-16.4-6.5ZM132.2,66.7c2.1,0,3.9-.7,5.1-2.1,1.4-1.5,2.1-3.3,2.1-5.5s-.7-4-2.1-5.4c-1.3-1.5-3-2.1-5.1-2.1s-3.9.7-5.2,2.1c-1.3,1.4-2,3.2-2,5.4s.7,4,2,5.5c1.4,1.4,3.1,2.1,5.2,2.1ZM193.8,80.6l-2.1-7.7h-17.3l-2.1,7.7h-18.4l19.1-60.1h20.1l19.1,60.1h-18.5ZM178.1,59.1h9.9l-5-18.5-5,18.5h0ZM105.1,37.2v-16.6h-24.2l-13.1,41.3v18.8h17.2v-19h19.7v-16.7h-19.7v-7.8s20.2,0,20.2,0Z"></path>
    <path class="st0" d="M0,0h17.2v60.1H0V0ZM57.7,60.1l13.1-41.3V0h-17.2v21.3h-14.6V0h-17.2v60.1h17.2v-22.1h14.6v22.1h4Z"></path>
  </g>
</svg>