<?xml version="1.0" encoding="UTF-8"?>
<svg id="Layer_2" data-name="Layer 2" xmlns="http://www.w3.org/2000/svg" viewBox="0 0 542.05 83.99">
  <defs>
    <style>
      .cls-1 {
        fill: #508450;
      }

      .cls-2 {
        fill: #296740;
      }

      .cls-3 {
        fill: #935442;
      }

      .cls-4 {
        fill: #693a2f;
      }
    </style>
  </defs>
  <g id="Layer_1-2" data-name="Layer 1">
    <g id="uuid-e3c82cb3-2121-4da6-ba91-f33d25918dca" data-name="Layer 1-2">
      <g>
        <path class="cls-3" d="M230.14.94h5v21.86h-5V.94ZM252.03,8.46c1.12,1.15,1.69,2.72,1.69,4.75v9.59h-4.68v-8.9c0-1.84-1.12-2.84-2.72-2.84-1.78,0-2.9,1.09-2.9,3.22v8.53h-4.68V7.18h4.68v1.47c.94-1.28,2.44-1.91,4.47-1.91,1.65,0,3.06.56,4.15,1.72h-.01ZM268.27.94h4.68v21.86h-4.68v-1.47c-1.09,1.28-2.65,1.9-4.65,1.9s-3.81-.78-5.28-2.37-2.19-3.56-2.19-5.87.72-4.25,2.19-5.84,3.22-2.4,5.28-2.4,3.56.62,4.65,1.91V.94ZM264.55,18.8c1.09,0,2-.34,2.69-1.03s1.03-1.62,1.03-2.78-.34-2.09-1.03-2.78-1.59-1.03-2.69-1.03-2,.34-2.69,1.03-1.03,1.62-1.03,2.78.34,2.09,1.03,2.78,1.59,1.03,2.69,1.03ZM286.47,7.18h4.68v15.61h-4.68v-1.47c-.94,1.28-2.44,1.9-4.47,1.9-1.65,0-3.06-.56-4.18-1.72-1.09-1.16-1.65-2.72-1.65-4.75V7.18h4.68v8.9c0,1.84,1.12,2.84,2.72,2.84,1.78,0,2.9-1.09,2.9-3.22V7.18ZM301.59,13.12c2.15.47,5,1.59,4.96,5,0,1.69-.62,2.97-1.87,3.84-1.25.84-2.78,1.28-4.62,1.28-3.28,0-5.53-1.25-6.71-3.72l4.06-2.31c.41,1.22,1.31,1.84,2.65,1.84,1.12,0,1.69-.31,1.69-.97s-1.22-1-2.72-1.37c-2.15-.59-4.96-1.65-4.96-4.84,0-1.62.59-2.87,1.75-3.78,1.19-.91,2.65-1.34,4.37-1.34,2.59,0,4.81,1.19,6.09,3.34l-4,2.16c-.5-.91-1.19-1.37-2.09-1.37s-1.31.28-1.31.87c0,.62,1.22.97,2.72,1.37h-.01ZM317.58,11.68h-3.22v5.53c0,1.25.94,1.47,3.22,1.34v4.25c-2.97.31-5.03.03-6.18-.84-1.16-.91-1.72-2.47-1.72-4.75v-5.53h-2.5v-4.5h2.5v-2.97l4.68-1.41v4.37h3.22v4.5h0ZM325.23,9.96c.59-2,2.56-3.09,4.68-3.09v5.31c-1.16-.19-2.22,0-3.22.59-.97.56-1.47,1.56-1.47,2.97v7.06h-4.68V7.18h4.68v2.78h.01ZM332.44,5c-1.09-1.12-1.09-2.87,0-3.97s2.87-1.12,3.97,0c1.12,1.09,1.12,2.84,0,3.97s-2.84,1.09-3.97,0ZM332.1,22.8V7.18h4.68v15.61h-4.68ZM351.55,7.18h4.68v15.61h-4.68v-1.47c-1.09,1.28-2.65,1.9-4.65,1.9s-3.81-.78-5.28-2.37-2.19-3.56-2.19-5.87.72-4.25,2.19-5.84,3.22-2.4,5.28-2.4,3.56.62,4.65,1.91c0,0,0-1.47,0-1.47ZM347.84,18.8c1.09,0,2-.34,2.69-1.03s1.03-1.62,1.03-2.78-.34-2.09-1.03-2.78-1.59-1.03-2.69-1.03-2,.34-2.69,1.03-1.03,1.62-1.03,2.78.34,2.09,1.03,2.78,1.59,1.03,2.69,1.03ZM359.67,22.8V0h4.68v22.8h-4.68ZM387.62.94h5v21.86h-5v-8.68h-6.87v8.68h-5V.94h5v8.37h6.87V.94ZM406.05,7.18h5l-5.34,15.15c-1.75,4.9-4.5,6.93-8.9,6.71v-4.37c2.15,0,3.19-.69,3.9-2.59l-6.21-14.9h5.15l3.47,9.56,2.94-9.56h-.01ZM423.6,7.18h4.56v14.83c0,2.47-.81,4.31-2.4,5.56-1.59,1.28-3.56,1.91-5.84,1.91-3.53,0-6-1.25-7.4-3.78l4-2.31c.72,1.31,1.9,1.97,3.56,1.97,2.22,0,3.53-1.19,3.53-3.34v-1.44c-1.09,1.34-2.59,2.03-4.56,2.03-2.19,0-4.03-.78-5.5-2.31-1.47-1.56-2.19-3.43-2.19-5.62s.72-4.06,2.19-5.59c1.47-1.56,3.31-2.34,5.5-2.34,1.97,0,3.47.69,4.56,2.03v-1.59h-.01ZM419.82,18.3c1.09,0,2-.34,2.72-1s1.06-1.53,1.06-2.62-.34-1.97-1.06-2.62c-.72-.66-1.62-1-2.72-1s-2,.34-2.72,1-1.06,1.53-1.06,2.62.34,1.97,1.06,2.62c.72.66,1.62,1,2.72,1ZM431.94,5c-1.09-1.12-1.09-2.87,0-3.97s2.87-1.12,3.97,0c1.12,1.09,1.12,2.84,0,3.97s-2.84,1.09-3.97,0ZM431.59,22.8V7.18h4.68v15.61h-4.68ZM443.9,16.86c.53,1.47,1.78,2.19,3.75,2.19,1.28,0,2.28-.41,3-1.19l3.75,2.16c-1.53,2.15-3.81,3.22-6.81,3.22-2.62,0-4.72-.78-6.31-2.34-1.56-1.56-2.34-3.53-2.34-5.9s.78-4.31,2.31-5.87c1.56-1.59,3.56-2.37,6-2.37,2.28,0,4.15.78,5.65,2.37,1.53,1.56,2.28,3.53,2.28,5.87,0,.66-.06,1.28-.19,1.87h-11.09ZM450.52,13.36c-.47-1.65-1.56-2.47-3.31-2.47s-2.94.81-3.4,2.47h6.71ZM471.13,8.46c1.12,1.15,1.69,2.72,1.69,4.75v9.59h-4.68v-8.9c0-1.84-1.12-2.84-2.72-2.84-1.78,0-2.9,1.09-2.9,3.22v8.53h-4.68V7.18h4.68v1.47c.94-1.28,2.44-1.91,4.47-1.91,1.65,0,3.06.56,4.15,1.72h-.01ZM480.22,16.86c.53,1.47,1.78,2.19,3.75,2.19,1.28,0,2.28-.41,3-1.19l3.75,2.16c-1.53,2.15-3.81,3.22-6.81,3.22-2.62,0-4.72-.78-6.31-2.34-1.56-1.56-2.34-3.53-2.34-5.9s.78-4.31,2.31-5.87c1.56-1.59,3.56-2.37,6-2.37,2.28,0,4.15.78,5.65,2.37,1.53,1.56,2.28,3.53,2.28,5.87,0,.66-.06,1.28-.19,1.87h-11.09ZM486.84,13.36c-.47-1.65-1.56-2.47-3.31-2.47s-2.94.81-3.4,2.47h6.71Z"/>
        <path class="cls-3" d="M243.41,39.21h-8.28v4.22h8.12v4.81h-8.12v8.03h-5v-21.86h13.27v4.81h0ZM253.71,56.69c-2.31,0-4.28-.78-5.87-2.37s-2.4-3.56-2.4-5.87.81-4.25,2.4-5.84,3.56-2.4,5.87-2.4,4.28.81,5.87,2.4,2.4,3.53,2.4,5.84-.81,4.28-2.4,5.87-3.56,2.37-5.87,2.37h0ZM253.71,52.13c1.03,0,1.87-.34,2.56-1.03.69-.69,1.03-1.56,1.03-2.65s-.34-1.97-1.03-2.65-1.53-1.03-2.56-1.03-1.87.34-2.56,1.03-1.03,1.56-1.03,2.65.34,1.97,1.03,2.65,1.53,1.03,2.56,1.03h0ZM269.33,43.42c.59-2,2.56-3.09,4.68-3.09v5.31c-1.16-.19-2.22,0-3.22.59-.97.56-1.47,1.56-1.47,2.97v7.06h-4.68v-15.61h4.68v2.78h.01ZM279.91,50.32c.53,1.47,1.78,2.19,3.75,2.19,1.28,0,2.28-.41,3-1.19l3.75,2.16c-1.53,2.15-3.81,3.22-6.81,3.22-2.62,0-4.72-.78-6.31-2.34-1.56-1.56-2.34-3.53-2.34-5.9s.78-4.31,2.31-5.87c1.56-1.59,3.56-2.37,6-2.37,2.28,0,4.15.78,5.65,2.37,1.53,1.56,2.28,3.53,2.28,5.87,0,.66-.06,1.28-.19,1.87h-11.09ZM286.53,46.82c-.47-1.65-1.56-2.47-3.31-2.47s-2.94.81-3.4,2.47h6.71ZM307.15,41.92c1.12,1.15,1.69,2.72,1.69,4.75v9.59h-4.68v-8.9c0-1.84-1.12-2.84-2.72-2.84-1.78,0-2.9,1.09-2.9,3.22v8.53h-4.68v-15.61h4.68v1.47c.94-1.28,2.44-1.91,4.47-1.91,1.65,0,3.06.56,4.15,1.72v-.02ZM319.2,46.58c2.15.47,5,1.59,4.96,5,0,1.69-.62,2.97-1.87,3.84-1.25.84-2.78,1.28-4.62,1.28-3.28,0-5.53-1.25-6.71-3.72l4.06-2.31c.41,1.22,1.31,1.84,2.65,1.84,1.12,0,1.69-.31,1.69-.97s-1.22-1-2.72-1.37c-2.15-.59-4.96-1.65-4.96-4.84,0-1.62.59-2.87,1.75-3.78,1.19-.91,2.65-1.34,4.37-1.34,2.59,0,4.81,1.19,6.09,3.34l-4,2.16c-.5-.91-1.19-1.37-2.09-1.37s-1.31.28-1.31.87c0,.62,1.22.97,2.72,1.37h-.01ZM326.85,38.46c-1.09-1.12-1.09-2.87,0-3.97,1.12-1.12,2.87-1.12,3.97,0,1.12,1.09,1.12,2.84,0,3.97s-2.84,1.09-3.97,0ZM326.51,56.26v-15.61h4.68v15.61h-4.68ZM336.19,54.32c-1.56-1.59-2.34-3.53-2.34-5.87s.78-4.28,2.34-5.87c1.59-1.59,3.56-2.37,5.93-2.37,3,0,5.68,1.59,7.06,4l-4.09,2.37c-.56-1.16-1.56-1.75-3.03-1.75-2.03,0-3.53,1.5-3.53,3.62s1.5,3.62,3.53,3.62c1.47,0,2.5-.59,3.03-1.75l4.09,2.34c-1.37,2.47-4.03,4.03-7.06,4.03-2.37,0-4.34-.78-5.93-2.37ZM358.21,46.58c2.15.47,5,1.59,4.96,5,0,1.69-.62,2.97-1.87,3.84-1.25.84-2.78,1.28-4.62,1.28-3.28,0-5.53-1.25-6.71-3.72l4.06-2.31c.41,1.22,1.31,1.84,2.65,1.84,1.12,0,1.69-.31,1.69-.97s-1.22-1-2.72-1.37c-2.15-.59-4.96-1.65-4.96-4.84,0-1.62.59-2.87,1.75-3.78,1.19-.91,2.65-1.34,4.37-1.34,2.59,0,4.81,1.19,6.09,3.34l-4,2.16c-.5-.91-1.19-1.37-2.09-1.37s-1.31.28-1.31.87c0,.62,1.22.97,2.72,1.37h-.01ZM374.41,54.26c-1.41-1.59-1.87-3.62-1.44-6.09.44-2.4,1.59-4.34,3.43-5.78s3.9-2.15,6.18-2.15,4.03.81,5.37,2.4,1.81,3.62,1.41,6.03c-.41,2.47-1.53,4.4-3.34,5.84s-3.84,2.15-6.06,2.15-4.15-.81-5.56-2.4h.01ZM384.34,52.51c1.28-1,2.06-2.37,2.34-4.12.28-1.69-.03-3.03-.94-4-.91-1-2.09-1.5-3.59-1.5-1.47.03-2.84.53-4.09,1.5s-2.03,2.34-2.37,4.06c-.28,1.75,0,3.12.91,4.12.91.97,2.12,1.47,3.59,1.44,1.53,0,2.9-.5,4.15-1.5ZM394.71,40.17c.78-4.28,3.53-6.46,7.93-6.18l-.5,2.62c-2.65-.22-4.25.97-4.72,3.56l-.09.47h4.12l-.47,2.62h-4.09l-2.31,12.99h-2.72l2.31-12.99h-2.53l.47-2.62h2.5l.09-.47h.01ZM423.69,56.26l-1.09-3.44h-8.12l-1.09,3.44h-5.46l7.43-21.86h6.37l7.43,21.86h-5.47ZM415.98,48.14h5.12l-2.56-8.03-2.56,8.03ZM452.67,41.98c1.09,1.16,1.62,2.72,1.62,4.68v9.59h-4.68v-9.18c0-1.59-.78-2.56-2.25-2.56s-2.44,1.09-2.44,2.94v8.81h-4.68v-9.18c0-1.59-.78-2.56-2.25-2.56s-2.44,1.09-2.44,2.94v8.81h-4.68v-15.61h4.68v1.44c.84-1.25,2.25-1.87,4.18-1.87,1.81,0,3.19.69,4.09,2.06.97-1.37,2.47-2.06,4.53-2.06,1.78,0,3.22.59,4.31,1.78v-.03ZM461.7,50.32c.53,1.47,1.78,2.19,3.75,2.19,1.28,0,2.28-.41,3-1.19l3.75,2.16c-1.53,2.15-3.81,3.22-6.81,3.22-2.62,0-4.72-.78-6.31-2.34-1.56-1.56-2.34-3.53-2.34-5.9s.78-4.31,2.31-5.87c1.56-1.59,3.56-2.37,6-2.37,2.28,0,4.15.78,5.65,2.37,1.53,1.56,2.28,3.53,2.28,5.87,0,.66-.06,1.28-.19,1.87h-11.09ZM468.32,46.82c-.47-1.65-1.56-2.47-3.31-2.47s-2.94.81-3.4,2.47h6.71ZM480.31,43.42c.59-2,2.56-3.09,4.68-3.09v5.31c-1.16-.19-2.22,0-3.22.59-.97.56-1.47,1.56-1.47,2.97v7.06h-4.68v-15.61h4.68v2.78h.01ZM487.53,38.46c-1.09-1.12-1.09-2.87,0-3.97s2.87-1.12,3.97,0c1.12,1.09,1.12,2.84,0,3.97s-2.84,1.09-3.97,0ZM487.18,56.26v-15.61h4.68v15.61h-4.68ZM496.86,54.32c-1.56-1.59-2.34-3.53-2.34-5.87s.78-4.28,2.34-5.87c1.59-1.59,3.56-2.37,5.93-2.37,3,0,5.68,1.59,7.06,4l-4.09,2.37c-.56-1.16-1.56-1.75-3.03-1.75-2.03,0-3.53,1.5-3.53,3.62s1.5,3.62,3.53,3.62c1.47,0,2.5-.59,3.03-1.75l4.09,2.34c-1.37,2.47-4.03,4.03-7.06,4.03-2.37,0-4.34-.78-5.93-2.37ZM521.97,40.64h4.68v15.61h-4.68v-1.47c-.94,1.28-2.44,1.9-4.47,1.9-1.65,0-3.06-.56-4.18-1.72-1.09-1.16-1.66-2.72-1.66-4.75v-9.59h4.68v8.9c0,1.84,1.12,2.84,2.72,2.84,1.78,0,2.9-1.09,2.9-3.22v-8.53.03ZM537.09,46.58c2.15.47,5,1.59,4.96,5,0,1.69-.62,2.97-1.87,3.84-1.25.84-2.78,1.28-4.62,1.28-3.28,0-5.53-1.25-6.71-3.72l4.06-2.31c.41,1.22,1.31,1.84,2.65,1.84,1.12,0,1.69-.31,1.69-.97s-1.22-1-2.72-1.37c-2.15-.59-4.96-1.65-4.96-4.84,0-1.62.59-2.87,1.75-3.78,1.19-.91,2.65-1.34,4.37-1.34,2.59,0,4.81,1.19,6.09,3.34l-4,2.16c-.5-.91-1.19-1.37-2.09-1.37s-1.31.28-1.31.87c0,.62,1.22.97,2.72,1.37h-.01Z"/>
      </g>
      <g>
        <path class="cls-2" d="M115.87,75.27c-4.46-4.38-6.69-9.69-6.69-16.13s2.23-11.76,6.69-16.13,9.95-6.52,16.39-6.52,11.93,2.14,16.39,6.52,6.69,9.7,6.69,16.13-2.23,11.75-6.69,16.13-9.95,6.52-16.39,6.52-11.84-2.15-16.39-6.52ZM132.25,66.69c2.15,0,3.86-.69,5.15-2.06,1.37-1.46,2.06-3.26,2.06-5.49s-.69-4.03-2.06-5.41c-1.29-1.46-3-2.14-5.15-2.14s-3.86.69-5.23,2.14c-1.29,1.37-1.97,3.18-1.97,5.41s.69,4.03,1.97,5.49c1.37,1.37,3.09,2.06,5.23,2.06ZM193.75,80.59l-2.06-7.72h-17.33l-2.06,7.72h-18.45l19.13-60.06h20.08l19.14,60.06h-18.45ZM178.05,59.14h9.95l-4.98-18.45-4.98,18.45h0ZM105.06,37.17v-16.65h-24.18l-13.14,41.26v18.81h17.16v-18.96h19.74v-16.65h-19.74v-7.81s20.16,0,20.16,0Z"/>
        <path class="cls-1" d="M0,0h17.16v60.06H0V0ZM57.67,60.06l13.14-41.26V0h-17.16v21.28h-14.59V0h-17.16v60.06h17.16v-22.14h14.59v22.14h4.02Z"/>
      </g>
      <g>
        <path class="cls-4" d="M231.33,79.46h5.78v1.12h-6.97v-11.9h6.88v1.12h-5.69v4.22h5.27v1.12h-5.27s0,4.32,0,4.32Z"/>
        <path class="cls-4" d="M246.11,80.59h-1.34l-2.65-3.5-2.65,3.5h-1.34l3.33-4.4-3.11-4.1h1.34l2.43,3.21,2.43-3.21h1.34l-3.09,4.1,3.31,4.4Z"/>
        <path class="cls-4" d="M255.29,73.18c.87.87,1.29,1.92,1.29,3.16s-.42,2.29-1.29,3.16c-.85.87-1.89,1.29-3.09,1.29-1.51,0-2.65-.63-3.43-1.87v5.07h-1.12v-11.9h1.12v1.67c.78-1.24,1.92-1.87,3.43-1.87,1.21,0,2.24.42,3.09,1.29ZM252.12,79.7c.94,0,1.73-.32,2.38-.97.65-.66.97-1.46.97-2.4s-.32-1.73-.97-2.38c-.65-.66-1.44-.99-2.38-.99s-1.73.32-2.38.99c-.65.65-.97,1.44-.97,2.38s.32,1.73.97,2.4c.65.65,1.45.97,2.38.97Z"/>
        <path class="cls-4" d="M265.43,73.23c.78.88,1.17,1.94,1.17,3.15,0,.12-.02.31-.03.53h-7.46c.22,1.72,1.56,2.8,3.38,2.8,1.29,0,2.26-.58,2.74-1.44l.99.58c-.75,1.21-2.09,1.96-3.74,1.96-1.34,0-2.43-.43-3.26-1.26-.83-.83-1.26-1.9-1.26-3.2s.41-2.33,1.24-3.18,1.89-1.27,3.2-1.27,2.28.44,3.04,1.34h-.01ZM259.1,75.81h6.34c-.12-.9-.46-1.6-1.04-2.09-.58-.49-1.26-.75-2.02-.75-1.77,0-3.06,1.16-3.28,2.84Z"/>
        <path class="cls-4" d="M269.51,73.5c.53-1.04,1.41-1.55,2.69-1.55v1.09c-1.55,0-2.69.87-2.69,2.82v4.73h-1.12v-8.5h1.12v1.41Z"/>
        <path class="cls-4" d="M278.4,73.18h-2.45v5.15c0,1.46.82,1.34,2.45,1.27v.99c-2.38.36-3.57-.29-3.57-2.26v-5.15h-1.79v-1.09h1.79v-2.04l1.12-.34v2.38h2.45v1.09Z"/>
        <path class="cls-4" d="M284.62,80.48c-.36-.36-.36-.97,0-1.33s.97-.36,1.33,0,.36.97,0,1.33-.97.36-1.33,0Z"/>
        <path class="cls-4" d="M293.93,79.01c-1.17-1.19-1.77-2.65-1.77-4.37s.59-3.18,1.77-4.37c1.17-1.19,2.67-1.79,4.47-1.79,2.19,0,4.15,1.14,5.15,2.92l-1.05.61c-.75-1.45-2.33-2.38-4.1-2.38-1.48,0-2.7.48-3.64,1.44-.93.97-1.41,2.14-1.41,3.55s.48,2.58,1.41,3.55c.94.97,2.16,1.45,3.64,1.45,1.77,0,3.35-.94,4.1-2.38l1.05.59c-.97,1.79-2.96,2.94-5.15,2.94-1.8,0-3.3-.6-4.47-1.79v.03Z"/>
        <path class="cls-4" d="M309.22,80.79c-1.24,0-2.31-.43-3.18-1.27-.87-.87-1.29-1.92-1.29-3.18s.42-2.31,1.29-3.16c.87-.87,1.94-1.29,3.18-1.29s2.29.42,3.16,1.29c.87.85,1.31,1.9,1.31,3.16s-.44,2.31-1.31,3.18c-.87.85-1.92,1.27-3.16,1.27ZM309.22,79.7c.93,0,1.73-.32,2.38-.97.65-.66.97-1.46.97-2.4s-.32-1.73-.97-2.38c-.65-.66-1.45-.99-2.38-.99s-1.73.32-2.38.99c-.65.65-.97,1.44-.97,2.38s.32,1.73.97,2.4c.65.65,1.45.97,2.38.97Z"/>
        <path class="cls-4" d="M327.8,75.28v5.3h-1.12v-5.3c0-1.48-.83-2.31-2.07-2.31-1.41,0-2.36.92-2.36,2.91v4.71h-1.12v-5.3c0-1.5-.76-2.31-1.99-2.31-1.36,0-2.45.94-2.45,2.91v4.71h-1.12v-8.5h1.12v1.24c.61-.97,1.48-1.44,2.6-1.44,1.22,0,2.09.51,2.58,1.55.61-1.04,1.53-1.55,2.75-1.55,1.9,0,3.18,1.31,3.18,3.4v-.02Z"/>
        <path class="cls-4" d="M337.62,73.18c.87.87,1.29,1.92,1.29,3.16s-.42,2.29-1.29,3.16c-.85.87-1.89,1.29-3.09,1.29-1.51,0-2.65-.63-3.43-1.87v5.07h-1.12v-11.9h1.12v1.67c.78-1.24,1.92-1.87,3.43-1.87,1.21,0,2.24.42,3.09,1.29ZM334.45,79.7c.94,0,1.73-.32,2.38-.97.65-.66.97-1.46.97-2.4s-.32-1.73-.97-2.38c-.65-.66-1.44-.99-2.38-.99s-1.73.32-2.38.99c-.65.65-.97,1.44-.97,2.38s.32,1.73.97,2.4c.65.65,1.45.97,2.38.97Z"/>
        <path class="cls-4" d="M340.79,80.59v-12.41h1.12v12.41h-1.12Z"/>
        <path class="cls-4" d="M344.27,70.05c-.32-.32-.32-.83,0-1.16s.83-.32,1.16,0c.32.32.32.83,0,1.16-.32.32-.83.32-1.16,0ZM344.29,80.59v-8.5h1.12v8.5h-1.12Z"/>
        <path class="cls-4" d="M355.1,72.09h1.12v8.5h-1.12v-1.67c-.78,1.24-1.92,1.87-3.43,1.87-1.21,0-2.24-.43-3.11-1.29-.85-.87-1.28-1.92-1.28-3.16s.42-2.29,1.28-3.16c.87-.87,1.9-1.29,3.11-1.29,1.51,0,2.65.63,3.43,1.87v-1.67ZM351.75,79.7c.93,0,1.73-.32,2.38-.97.65-.66.97-1.46.97-2.4s-.32-1.73-.97-2.38c-.65-.66-1.45-.99-2.38-.99s-1.73.32-2.38.99c-.65.65-.97,1.44-.97,2.38s.32,1.73.97,2.4c.65.65,1.45.97,2.38.97Z"/>
        <path class="cls-4" d="M365.91,75.37v5.22h-1.12v-5.22c0-1.51-.83-2.4-2.31-2.4-1.63,0-2.75,1-2.75,3.16v4.45h-1.12v-8.5h1.12v1.33c.63-1.02,1.58-1.53,2.86-1.53,2.06,0,3.33,1.36,3.33,3.48h0Z"/>
        <path class="cls-4" d="M368.85,79.52c-.85-.87-1.28-1.92-1.28-3.18s.42-2.31,1.28-3.16c.85-.87,1.92-1.29,3.2-1.29,1.68,0,3.11.87,3.72,2.23l-.92.53c-.46-1.02-1.53-1.67-2.8-1.67-.93,0-1.73.32-2.38.99-.65.65-.97,1.44-.97,2.38s.32,1.73.97,2.4c.65.65,1.45.97,2.38.97,1.28,0,2.31-.65,2.87-1.67l.93.54c-.7,1.36-2.16,2.21-3.81,2.21-1.27,0-2.35-.43-3.2-1.27h.01Z"/>
        <path class="cls-4" d="M384.36,73.23c.78.88,1.17,1.94,1.17,3.15,0,.12-.02.31-.03.53h-7.46c.22,1.72,1.56,2.8,3.38,2.8,1.29,0,2.26-.58,2.74-1.44l.99.58c-.75,1.21-2.09,1.96-3.74,1.96-1.34,0-2.43-.43-3.26-1.26-.83-.83-1.26-1.9-1.26-3.2s.41-2.33,1.24-3.18,1.89-1.27,3.2-1.27,2.28.44,3.04,1.34h-.01ZM378.03,75.81h6.34c-.12-.9-.46-1.6-1.04-2.09-.58-.49-1.26-.75-2.02-.75-1.77,0-3.06,1.16-3.28,2.84Z"/>
      </g>
    </g>
  </g>
</svg>